<svg id="d4426390-eb4d-43d9-a49e-e695b29788aa" data-name="Layer 1" xmlns="http://www.w3.org/2000/svg" viewBox="0 0 337.23 137.25"><defs><style>.e09a74a8-f834-4763-ac87-0dde9bc5e01c{fill:#1e5b2e;}.\36 17144a8-2b83-4d62-9826-785defa8d39a{fill:#9dcc49;}.fbccaf9e-2030-45af-9c5c-8f526fb371ed{fill:#58b948;}</style></defs><title>logo</title><path class="e09a74a8-f834-4763-ac87-0dde9bc5e01c" d="M71.85,132.47v0a4.71,4.71,0,0,1,4.79-4.81,4.82,4.82,0,0,1,3.63,1.45l-1,1.21a3.71,3.71,0,0,0-2.6-1.16,3.13,3.13,0,0,0-3.07,3.28v0a3.14,3.14,0,0,0,3.07,3.29,3.59,3.59,0,0,0,2.66-1.2l1,1.06a4.79,4.79,0,0,1-3.77,1.65A4.67,4.67,0,0,1,71.85,132.47Z"/><path class="e09a74a8-f834-4763-ac87-0dde9bc5e01c" d="M87.37,127.8h4.14a3.78,3.78,0,0,1,2.68.93,2.84,2.84,0,0,1,.77,2v0a2.78,2.78,0,0,1-2.21,2.81l2.51,3.52H93.32L91,133.85H89v3.24H87.37Zm4,4.61c1.17,0,1.91-.61,1.91-1.56v0c0-1-.72-1.54-1.93-1.54H89v3.12Z"/><path class="e09a74a8-f834-4763-ac87-0dde9bc5e01c" d="M101.86,132.47v0a4.86,4.86,0,0,1,9.72,0v0a4.86,4.86,0,0,1-9.72,0Zm8,0v0a3.18,3.18,0,0,0-3.15-3.31,3.15,3.15,0,0,0-3.14,3.28v0a3.18,3.18,0,0,0,3.16,3.29A3.12,3.12,0,0,0,109.86,132.47Z"/><path class="e09a74a8-f834-4763-ac87-0dde9bc5e01c" d="M118.87,127.8h3.66c2.18,0,3.53,1.24,3.53,3.11v0c0,2.09-1.67,3.18-3.71,3.18H120.5v3h-1.63Zm3.53,4.83c1.23,0,2-.69,2-1.66v0c0-1.09-.78-1.66-2-1.66h-1.9v3.34Z"/><path class="e09a74a8-f834-4763-ac87-0dde9bc5e01c" d="M142.43,127.8h1.63v9.29h-1.63Z"/><path class="e09a74a8-f834-4763-ac87-0dde9bc5e01c" d="M151.86,127.8h1.51l5,6.43V127.8H160v9.29h-1.36l-5.13-6.61v6.61h-1.6Z"/><path class="e09a74a8-f834-4763-ac87-0dde9bc5e01c" d="M167,135.74l1-1.17a4.32,4.32,0,0,0,2.94,1.21c1,0,1.64-.48,1.64-1.17v0c0-.66-.37-1-2.09-1.42-2-.47-3.1-1.06-3.1-2.77v0c0-1.59,1.33-2.69,3.18-2.69a5.15,5.15,0,0,1,3.37,1.17l-.88,1.23a4.24,4.24,0,0,0-2.52-.95c-1,0-1.51.49-1.51,1.1v0c0,.72.42,1,2.21,1.46,2,.48,3,1.19,3,2.72v0c0,1.74-1.36,2.77-3.31,2.77A5.76,5.76,0,0,1,167,135.74Z"/><path class="e09a74a8-f834-4763-ac87-0dde9bc5e01c" d="M181.32,133.15V127.8H183v5.28c0,1.73.89,2.64,2.35,2.64s2.33-.86,2.33-2.57V127.8h1.63v5.27c0,2.77-1.56,4.17-4,4.17S181.32,135.84,181.32,133.15Z"/><path class="e09a74a8-f834-4763-ac87-0dde9bc5e01c" d="M196.82,127.8H201a3.74,3.74,0,0,1,2.68.93,2.84,2.84,0,0,1,.77,2v0a2.78,2.78,0,0,1-2.2,2.81l2.51,3.52h-1.94l-2.28-3.24h-2.05v3.24h-1.63Zm4,4.61c1.17,0,1.91-.61,1.91-1.56v0c0-1-.71-1.54-1.92-1.54h-2.38v3.12Z"/><path class="e09a74a8-f834-4763-ac87-0dde9bc5e01c" d="M215,127.74h1.51l4.09,9.35h-1.73l-.94-2.24h-4.39l-1,2.24h-1.67Zm2.33,5.66-1.6-3.71-1.59,3.71Z"/><path class="e09a74a8-f834-4763-ac87-0dde9bc5e01c" d="M227.53,127.8H229l5,6.43V127.8h1.6v9.29h-1.37l-5.12-6.61v6.61h-1.6Z"/><path class="e09a74a8-f834-4763-ac87-0dde9bc5e01c" d="M242.91,132.47v0a4.71,4.71,0,0,1,4.79-4.81,4.84,4.84,0,0,1,3.64,1.45l-1.05,1.21a3.7,3.7,0,0,0-2.6-1.16,3.13,3.13,0,0,0-3.07,3.28v0a3.14,3.14,0,0,0,3.07,3.29,3.62,3.62,0,0,0,2.67-1.2l1,1.06a4.81,4.81,0,0,1-3.77,1.65A4.68,4.68,0,0,1,242.91,132.47Z"/><path class="e09a74a8-f834-4763-ac87-0dde9bc5e01c" d="M258.43,127.8h6.89v1.46h-5.26v2.42h4.66v1.46h-4.66v2.49h5.33v1.46h-7Z"/><path class="e09a74a8-f834-4763-ac87-0dde9bc5e01c" d="M0,77.2H17.05v4.62H5.19v7.25h9.39v4.62H5.19v11.42H0Z"/><path class="e09a74a8-f834-4763-ac87-0dde9bc5e01c" d="M43,98.35H32.61l-2.56,6.76h-5.5L35,77.2h5.59L51,105.11H45.58Zm-8.67-4.54h7L37.8,83.15Z"/><path class="e09a74a8-f834-4763-ac87-0dde9bc5e01c" d="M82.77,105.11H76.53L70,95.19H67.82v9.92H62.64V77.2H73.81c6.16,0,8.92,4.49,8.92,9,0,4-2.15,7.94-7.09,8.75Zm-15-23.29v8.75h5.59c2.71,0,3.93-2.27,3.93-4.34s-1.17-4.41-3.77-4.41Z"/><path class="e09a74a8-f834-4763-ac87-0dde9bc5e01c" d="M136,77.2v27.91h-5.22V93.57H119.6v11.54h-5.15V77.2h5.15V88.9h11.18V77.2Z"/><path class="e09a74a8-f834-4763-ac87-0dde9bc5e01c" d="M164.07,76.88a14.32,14.32,0,1,1-14.14,14.34A14.18,14.18,0,0,1,164.07,76.88Zm0,23.54a9.22,9.22,0,1,0-9-9.2A9,9,0,0,0,164.07,100.42Z"/><path class="e09a74a8-f834-4763-ac87-0dde9bc5e01c" d="M211.44,105.11H205.2l-6.56-9.92h-2.15v9.92H191.3V77.2h11.18c6.16,0,8.92,4.49,8.92,9,0,4-2.15,7.94-7.1,8.75ZM196.49,81.82v8.75h5.59c2.71,0,3.93-2.27,3.93-4.34s-1.18-4.41-3.77-4.41Z"/><path class="e09a74a8-f834-4763-ac87-0dde9bc5e01c" d="M225,77.2h5.14v27.91H225Z"/><path class="e09a74a8-f834-4763-ac87-0dde9bc5e01c" d="M256.85,81.86H243.93V77.2h19.61v4.09L250,100.45h13.57v4.66H243.4v-4Z"/><path class="e09a74a8-f834-4763-ac87-0dde9bc5e01c" d="M289,76.88a14.32,14.32,0,1,1-14.14,14.34A14.17,14.17,0,0,1,289,76.88Zm0,23.53a9.22,9.22,0,1,0-9-9.19A9,9,0,0,0,289,100.41Z"/><path class="e09a74a8-f834-4763-ac87-0dde9bc5e01c" d="M337.23,105.11h-4.74L321.72,86.76v18.35h-5.15V77.2h4.82l10.66,18.15V77.2h5.18Z"/><path class="617144a8-2b83-4d62-9826-785defa8d39a" d="M188.25,6.43V27.88a4.43,4.43,0,0,1-.09.87l-18.37-8.69V2.7h14.74A3.73,3.73,0,0,1,188.25,6.43Z"/><path class="617144a8-2b83-4d62-9826-785defa8d39a" d="M173.72,46.12c-1.55,1.43-2.89,2.65-3.93,3.68V22.66L187.38,31C185,35.78,178.41,41.84,173.72,46.12Z"/><path class="fbccaf9e-2030-45af-9c5c-8f526fb371ed" d="M149,27.88V18.81l18.46-8.74v10l-18.37,8.69A5.36,5.36,0,0,1,149,27.88Z"/><path class="fbccaf9e-2030-45af-9c5c-8f526fb371ed" d="M152.66,2.79c3.36,0,8.59-.08,14.78-.09V7.47L149,16.21V6.52A3.75,3.75,0,0,1,152.66,2.79Z"/><path class="fbccaf9e-2030-45af-9c5c-8f526fb371ed" d="M163.51,46.13C158.82,41.84,152.2,35.78,149.85,31l17.59-8.33V49.8C166.41,48.77,165.07,47.55,163.51,46.13Z"/><path class="e09a74a8-f834-4763-ac87-0dde9bc5e01c" d="M168.62,53.92a2.37,2.37,0,0,1-1.84-.87,66.7,66.7,0,0,0-5.08-4.92c-6.52-6-15.42-14.1-15.42-20.25V6.52A6.45,6.45,0,0,1,152.63.09c3.6,0,9.3-.09,16-.09h15.91A6.44,6.44,0,0,1,191,6.43V27.88c0,6.15-8.91,14.29-15.41,20.24a67.54,67.54,0,0,0-5.1,4.93A2.36,2.36,0,0,1,168.62,53.92ZM150.33,31.15c2.44,4.68,8.77,10.47,13.42,14.72C165,47,166.13,48,167.09,49V23.22ZM170.14,49c.9-.86,2-1.85,3.35-3.09,4.64-4.25,11-10,13.42-14.72l-16.77-7.93ZM149.33,27.88c0,.11,0,.23,0,.35l17.74-8.39V10.63L149.33,19Zm38.55.35c0-.12,0-.24,0-.35V6.43a3.37,3.37,0,0,0-3.37-3.37H170.14V19.84ZM167.09,3.06c-6.05,0-11.17,0-14.43.08a3.4,3.4,0,0,0-3.33,3.38v9.13l17.76-8.41Z"/></svg>