<svg id="Layer_1" data-name="Layer 1" xmlns="http://www.w3.org/2000/svg" xmlns:xlink="http://www.w3.org/1999/xlink" viewBox="0 0 337.23 137.73"><defs><style>.cls-1{fill:none;}.cls-2{fill:#1e5b2e;}.cls-3{clip-path:url(#clip-path);}.cls-4{fill:#9dcc49;}.cls-5{fill:#58b948;}</style><clipPath id="clip-path"><path class="cls-1" d="M167.08,3.07c-6.08,0-11.23.05-14.5.09a3.4,3.4,0,0,0-3.35,3.39V28c0,.11,0,.23,0,.36l1,2.93c2.46,4.71,8.82,10.52,13.49,14.79,1.23,1.12,3.17,4.09,4.14,5L170,51c.9-.87,2.19-3.63,3.55-4.88,4.67-4.27,11-10.09,13.5-14.79l1-2.93c0-.13,0-.25,0-.36V6.46a3.39,3.39,0,0,0-3.39-3.39H167.08Z"/></clipPath></defs><title>shield-animate</title><path class="cls-2" d="M71.85,133v0a4.7,4.7,0,0,1,4.79-4.8,4.85,4.85,0,0,1,3.63,1.44l-1,1.21a3.7,3.7,0,0,0-2.6-1.15,3.13,3.13,0,0,0-3.07,3.28v0a3.13,3.13,0,0,0,3.07,3.29A3.61,3.61,0,0,0,79.29,135l1,1.06a4.79,4.79,0,0,1-3.77,1.64A4.67,4.67,0,0,1,71.85,133Z"/><path class="cls-2" d="M87.37,128.29h4.14a3.73,3.73,0,0,1,2.68.93,2.79,2.79,0,0,1,.77,2v0a2.79,2.79,0,0,1-2.21,2.81l2.51,3.52H93.32L91,134.34H89v3.24H87.37Zm4,4.6c1.17,0,1.91-.61,1.91-1.55v0c0-1-.72-1.54-1.93-1.54H89v3.12Z"/><path class="cls-2" d="M101.86,133v0a4.86,4.86,0,0,1,9.72,0v0a4.86,4.86,0,0,1-9.72,0Zm8,0v0a3.18,3.18,0,0,0-3.15-3.3,3.14,3.14,0,0,0-3.14,3.28v0a3.17,3.17,0,0,0,3.16,3.29A3.12,3.12,0,0,0,109.86,133Z"/><path class="cls-2" d="M118.87,128.29h3.66c2.18,0,3.53,1.23,3.53,3.1v0c0,2.08-1.67,3.17-3.71,3.17H120.5v3h-1.63Zm3.53,4.83c1.23,0,2-.69,2-1.66v0c0-1.09-.78-1.66-2-1.66h-1.9v3.35Z"/><path class="cls-2" d="M142.43,128.29h1.63v9.29h-1.63Z"/><path class="cls-2" d="M151.86,128.29h1.51l5,6.42v-6.42H160v9.29h-1.36L153.46,131v6.61h-1.6Z"/><path class="cls-2" d="M167,136.22l1-1.17a4.32,4.32,0,0,0,2.94,1.21c1,0,1.64-.48,1.64-1.17v0c0-.67-.37-1-2.09-1.42-2-.48-3.1-1.06-3.1-2.78v0c0-1.59,1.33-2.69,3.18-2.69a5.2,5.2,0,0,1,3.37,1.16l-.88,1.24a4.19,4.19,0,0,0-2.52-1c-1,0-1.51.49-1.51,1.1v0c0,.72.42,1,2.21,1.46,2,.48,3,1.18,3,2.72v0c0,1.73-1.36,2.77-3.31,2.77A5.73,5.73,0,0,1,167,136.22Z"/><path class="cls-2" d="M181.32,133.63v-5.34H183v5.28c0,1.72.89,2.64,2.35,2.64s2.33-.86,2.33-2.58v-5.34h1.63v5.26c0,2.78-1.56,4.17-4,4.17S181.32,136.33,181.32,133.63Z"/><path class="cls-2" d="M196.82,128.29H201a3.7,3.7,0,0,1,2.68.93,2.79,2.79,0,0,1,.77,2v0a2.78,2.78,0,0,1-2.2,2.81l2.51,3.52h-1.94l-2.28-3.24h-2.05v3.24h-1.63Zm4,4.6c1.17,0,1.91-.61,1.91-1.55v0c0-1-.71-1.54-1.92-1.54h-2.38v3.12Z"/><path class="cls-2" d="M215,128.22h1.51l4.09,9.36h-1.73l-.94-2.25h-4.39l-1,2.25h-1.67Zm2.33,5.67-1.6-3.72-1.59,3.72Z"/><path class="cls-2" d="M227.53,128.29H229l5,6.42v-6.42h1.6v9.29h-1.37L229.13,131v6.61h-1.6Z"/><path class="cls-2" d="M242.91,133v0a4.7,4.7,0,0,1,4.79-4.8,4.87,4.87,0,0,1,3.64,1.44l-1.05,1.21a3.69,3.69,0,0,0-2.6-1.15,3.13,3.13,0,0,0-3.07,3.28v0a3.13,3.13,0,0,0,3.07,3.29,3.65,3.65,0,0,0,2.67-1.19l1,1.06a4.8,4.8,0,0,1-3.77,1.64A4.67,4.67,0,0,1,242.91,133Z"/><path class="cls-2" d="M258.43,128.29h6.89v1.46h-5.26v2.41h4.66v1.46h-4.66v2.5h5.33v1.46h-7Z"/><path class="cls-2" d="M0,77.68H17.05V82.3H5.19v7.25h9.39v4.62H5.19V105.6H0Z"/><path class="cls-2" d="M43,98.83H32.61l-2.56,6.77h-5.5L35,77.68h5.59L51,105.6H45.58Zm-8.67-4.54h7L37.8,83.64Z"/><path class="cls-2" d="M82.77,105.6H76.53L70,95.67H67.82v9.93H62.64V77.68H73.81c6.16,0,8.92,4.5,8.92,9,0,4-2.15,7.94-7.09,8.75Zm-15-23.3v8.75h5.59c2.71,0,3.93-2.27,3.93-4.33s-1.17-4.42-3.77-4.42Z"/><path class="cls-2" d="M136,77.68V105.6h-5.22V94.05H119.6V105.6h-5.15V77.68h5.15V89.39h11.18V77.68Z"/><path class="cls-2" d="M164.07,77.37a14.32,14.32,0,1,1-14.14,14.34A14.17,14.17,0,0,1,164.07,77.37Zm0,23.53a9.22,9.22,0,1,0-9-9.19A9,9,0,0,0,164.07,100.9Z"/><path class="cls-2" d="M211.44,105.6H205.2l-6.56-9.93h-2.15v9.93H191.3V77.68h11.18c6.16,0,8.92,4.5,8.92,9,0,4-2.15,7.94-7.1,8.75ZM196.49,82.3v8.75h5.59c2.71,0,3.93-2.27,3.93-4.33s-1.18-4.42-3.77-4.42Z"/><path class="cls-2" d="M225,77.68h5.14V105.6H225Z"/><path class="cls-2" d="M256.85,82.34H243.93V77.68h19.61v4.09L250,100.94h13.57v4.66H243.4v-4.06Z"/><path class="cls-2" d="M289,77.36A14.32,14.32,0,1,1,274.88,91.7,14.18,14.18,0,0,1,289,77.36Zm0,23.54a9.22,9.22,0,1,0-9-9.2A9,9,0,0,0,289,100.9Z"/><path class="cls-2" d="M337.23,105.6h-4.74L321.72,87.24V105.6h-5.15V77.68h4.82l10.66,18.15V77.68h5.18Z"/><g id="Shield"><path id="shieldbg" class="cls-2" d="M168.62,54.21a2.4,2.4,0,0,1-1.85-.87,65.61,65.61,0,0,0-5.11-5c-6.55-6-15.5-14.17-15.5-20.36V6.55A6.48,6.48,0,0,1,152.54.09c3.62,0,9.36-.09,16.08-.09h16a6.47,6.47,0,0,1,6.47,6.46V28c0,6.19-9,14.37-15.49,20.35a64.58,64.58,0,0,0-5.13,5A2.38,2.38,0,0,1,168.62,54.21Z"/><g id="Colors"><g class="cls-3"><path id="lght-01" class="cls-4" d="M188.36,6.46V28a5.47,5.47,0,0,1-.09.88L169.8,20.17V2.72h14.81A3.75,3.75,0,0,1,188.36,6.46Z"/><path id="lght-02" class="cls-4" d="M173.75,46.37c-1.56,1.43-2.91,2.67-3.95,3.7V22.78l17.69,8.38C185.13,36,178.46,42.07,173.75,46.37Z"/><path id="drk-02" class="cls-5" d="M148.88,28V18.91l18.55-8.79V20.17L149,28.91A4.53,4.53,0,0,1,148.88,28Z"/><path id="drk-01" class="cls-5" d="M152.57,2.81c3.38,0,8.64-.09,14.86-.09V7.51l-18.55,8.78V6.55A3.74,3.74,0,0,1,152.57,2.81Z"/><path id="drk-03" class="cls-5" d="M163.49,46.38c-4.72-4.31-11.38-10.41-13.74-15.22l17.68-8.38V50.07C166.39,49,165.05,47.81,163.49,46.38Z"/></g></g><path id="topshield" class="cls-2" d="M168.62,54.21a2.4,2.4,0,0,1-1.85-.87,65.61,65.61,0,0,0-5.11-5c-6.55-6-15.5-14.17-15.5-20.36V6.55A6.48,6.48,0,0,1,152.54.09c3.62,0,9.36-.09,16.08-.09h16a6.47,6.47,0,0,1,6.47,6.46V28c0,6.19-9,14.37-15.49,20.35a64.58,64.58,0,0,0-5.13,5A2.38,2.38,0,0,1,168.62,54.21ZM150.23,31.32c2.46,4.71,8.82,10.52,13.49,14.79,1.23,1.12,2.4,2.19,3.36,3.12V23.34Zm19.92,17.91c.9-.87,2-1.87,3.36-3.12,4.67-4.27,11-10.09,13.5-14.79l-16.86-8ZM149.23,28c0,.11,0,.23,0,.36l17.83-8.45V10.68l-17.85,8.46Zm38.76.36c0-.13,0-.25,0-.36V6.46a3.39,3.39,0,0,0-3.39-3.39H170.15V19.94ZM167.08,3.07c-6.08,0-11.23.05-14.5.09a3.4,3.4,0,0,0-3.35,3.39v9.19l17.85-8.46Z"/></g></svg>