<svg id="Layer_1" data-name="Layer 1" xmlns="http://www.w3.org/2000/svg" viewBox="0 0 337.23 137.73"><defs><style>.cls-1{fill:none}.cls-2{fill:#1e5b2e}.cls-3{clip-path:url(#clip-path)}.cls-4{fill:#9dcc49}.cls-5{fill:#58b948}</style><clipPath id="clip-path"><path class="cls-1" d="M167.08 3.07c-6.08 0-11.23.05-14.5.09a3.4 3.4 0 0 0-3.35 3.39v21.81l1 2.93c2.46 4.71 8.82 10.52 13.49 14.79 1.23 1.12 3.17 4.09 4.14 5L170 51c.9-.87 2.19-3.63 3.55-4.88 4.67-4.27 11-10.09 13.5-14.79l1-2.93V6.46a3.39 3.39 0 0 0-3.39-3.39h-17.58z"/></clipPath></defs><title>shield-animate</title><path class="cls-2" d="M71.85 133a4.7 4.7 0 0 1 4.79-4.8 4.85 4.85 0 0 1 3.63 1.44l-1 1.21a3.7 3.7 0 0 0-2.6-1.15 3.13 3.13 0 0 0-3.07 3.28 3.13 3.13 0 0 0 3.07 3.29 3.61 3.61 0 0 0 2.62-1.27l1 1.06a4.79 4.79 0 0 1-3.77 1.64 4.67 4.67 0 0 1-4.67-4.7zM87.37 128.29h4.14a3.73 3.73 0 0 1 2.68.93 2.79 2.79 0 0 1 .77 2 2.79 2.79 0 0 1-2.21 2.81l2.51 3.52h-1.94L91 134.34h-2v3.24h-1.63zm4 4.6c1.17 0 1.91-.61 1.91-1.55 0-1-.72-1.54-1.93-1.54H89v3.12zM101.86 133a4.86 4.86 0 0 1 9.72 0 4.86 4.86 0 0 1-9.72 0zm8 0a3.18 3.18 0 0 0-3.15-3.3 3.14 3.14 0 0 0-3.14 3.28 3.17 3.17 0 0 0 3.16 3.29 3.12 3.12 0 0 0 3.13-3.27zM118.87 128.29h3.66c2.18 0 3.53 1.23 3.53 3.1 0 2.08-1.67 3.17-3.71 3.17h-1.85v3h-1.63zm3.53 4.83c1.23 0 2-.69 2-1.66 0-1.09-.78-1.66-2-1.66h-1.9v3.35zM142.43 128.29h1.63v9.29h-1.63zM151.86 128.29h1.51l5 6.42v-6.42H160v9.29h-1.36l-5.18-6.58v6.61h-1.6zM167 136.22l1-1.17a4.32 4.32 0 0 0 2.94 1.21c1 0 1.64-.48 1.64-1.17 0-.67-.37-1-2.09-1.42-2-.48-3.1-1.06-3.1-2.78 0-1.59 1.33-2.69 3.18-2.69a5.2 5.2 0 0 1 3.37 1.16l-.88 1.24a4.19 4.19 0 0 0-2.52-1c-1 0-1.51.49-1.51 1.1 0 .72.42 1 2.21 1.46 2 .48 3 1.18 3 2.72 0 1.73-1.36 2.77-3.31 2.77a5.73 5.73 0 0 1-3.93-1.43zM181.32 133.63v-5.34H183v5.28c0 1.72.89 2.64 2.35 2.64s2.33-.86 2.33-2.58v-5.34h1.63v5.26c0 2.78-1.56 4.17-4 4.17s-3.99-1.39-3.99-4.09zM196.82 128.29H201a3.7 3.7 0 0 1 2.68.93 2.79 2.79 0 0 1 .77 2 2.78 2.78 0 0 1-2.2 2.81l2.51 3.52h-1.94l-2.28-3.24h-2.05v3.24h-1.63zm4 4.6c1.17 0 1.91-.61 1.91-1.55 0-1-.71-1.54-1.92-1.54h-2.38v3.12zM215 128.22h1.51l4.09 9.36h-1.73l-.94-2.25h-4.39l-1 2.25h-1.67zm2.33 5.67l-1.6-3.72-1.59 3.72zM227.53 128.29H229l5 6.42v-6.42h1.6v9.29h-1.37l-5.1-6.58v6.61h-1.6zM242.91 133a4.7 4.7 0 0 1 4.79-4.8 4.87 4.87 0 0 1 3.64 1.44l-1.05 1.21a3.69 3.69 0 0 0-2.6-1.15 3.13 3.13 0 0 0-3.07 3.28 3.13 3.13 0 0 0 3.07 3.29 3.65 3.65 0 0 0 2.67-1.19l1 1.06a4.8 4.8 0 0 1-3.77 1.64 4.67 4.67 0 0 1-4.68-4.78zM258.43 128.29h6.89v1.46h-5.26v2.41h4.66v1.46h-4.66v2.5h5.33v1.46h-7zM0 77.68h17.05v4.62H5.19v7.25h9.39v4.62H5.19v11.43H0zM43 98.83H32.61l-2.56 6.77h-5.5L35 77.68h5.59L51 105.6h-5.42zm-8.67-4.54h7L37.8 83.64zM82.77 105.6h-6.24L70 95.67h-2.18v9.93h-5.18V77.68h11.17c6.16 0 8.92 4.5 8.92 9 0 4-2.15 7.94-7.09 8.75zm-15-23.3v8.75h5.59c2.71 0 3.93-2.27 3.93-4.33s-1.17-4.42-3.77-4.42zM136 77.68v27.92h-5.22V94.05H119.6v11.55h-5.15V77.68h5.15v11.71h11.18V77.68zM164.07 77.37a14.32 14.32 0 1 1-14.14 14.34 14.17 14.17 0 0 1 14.14-14.34zm0 23.53a9.22 9.22 0 1 0-9-9.19 9 9 0 0 0 9 9.19zM211.44 105.6h-6.24l-6.56-9.93h-2.15v9.93h-5.19V77.68h11.18c6.16 0 8.92 4.5 8.92 9 0 4-2.15 7.94-7.1 8.75zm-14.95-23.3v8.75h5.59c2.71 0 3.93-2.27 3.93-4.33s-1.18-4.42-3.77-4.42zM225 77.68h5.14v27.92H225zM256.85 82.34h-12.92v-4.66h19.61v4.09L250 100.94h13.57v4.66H243.4v-4.06zM289 77.36a14.32 14.32 0 1 1-14.12 14.34A14.18 14.18 0 0 1 289 77.36zm0 23.54a9.22 9.22 0 1 0-9-9.2 9 9 0 0 0 9 9.2zM337.23 105.6h-4.74l-10.77-18.36v18.36h-5.15V77.68h4.82l10.66 18.15V77.68h5.18z"/><g id="Shield"><path id="shieldbg" class="cls-2" d="M168.62 54.21a2.4 2.4 0 0 1-1.85-.87 65.61 65.61 0 0 0-5.11-5c-6.55-6-15.5-14.17-15.5-20.36V6.55a6.48 6.48 0 0 1 6.38-6.46c3.62 0 9.36-.09 16.08-.09h16a6.47 6.47 0 0 1 6.47 6.46V28c0 6.19-9 14.37-15.49 20.35a64.58 64.58 0 0 0-5.13 5 2.38 2.38 0 0 1-1.85.86z"/><g class="cls-3" id="Colors"><path id="lght-01" class="cls-4" d="M188.36 6.46V28a5.47 5.47 0 0 1-.09.88l-18.47-8.71V2.72h14.81a3.75 3.75 0 0 1 3.75 3.74z"/><path id="lght-02" class="cls-4" d="M173.75 46.37c-1.56 1.43-2.91 2.67-3.95 3.7V22.78l17.69 8.38c-2.36 4.84-9.03 10.91-13.74 15.21z"/><path id="drk-02" class="cls-5" d="M148.88 28v-9.09l18.55-8.79v10.05L149 28.91a4.53 4.53 0 0 1-.12-.91z"/><path id="drk-01" class="cls-5" d="M152.57 2.81c3.38 0 8.64-.09 14.86-.09v4.79l-18.55 8.78V6.55a3.74 3.74 0 0 1 3.69-3.74z"/><path id="drk-03" class="cls-5" d="M163.49 46.38c-4.72-4.31-11.38-10.41-13.74-15.22l17.68-8.38v27.29c-1.04-1.07-2.38-2.26-3.94-3.69z"/></g><path id="topshield" class="cls-2" d="M168.62 54.21a2.4 2.4 0 0 1-1.85-.87 65.61 65.61 0 0 0-5.11-5c-6.55-6-15.5-14.17-15.5-20.36V6.55a6.48 6.48 0 0 1 6.38-6.46c3.62 0 9.36-.09 16.08-.09h16a6.47 6.47 0 0 1 6.47 6.46V28c0 6.19-9 14.37-15.49 20.35a64.58 64.58 0 0 0-5.13 5 2.38 2.38 0 0 1-1.85.86zm-18.39-22.89c2.46 4.71 8.82 10.52 13.49 14.79 1.23 1.12 2.4 2.19 3.36 3.12V23.34zm19.92 17.91c.9-.87 2-1.87 3.36-3.12 4.67-4.27 11-10.09 13.5-14.79l-16.86-8zM149.23 28v.36l17.83-8.45v-9.23l-17.85 8.46zm38.76.36V6.46a3.39 3.39 0 0 0-3.39-3.39h-14.45v16.87zM167.08 3.07c-6.08 0-11.23.05-14.5.09a3.4 3.4 0 0 0-3.35 3.39v9.19l17.85-8.46z"/></g></svg>